<?xml version="1.0" encoding="utf-8"?>
<!-- Generator: Adobe Illustrator 22.1.0, SVG Export Plug-In . SVG Version: 6.00 Build 0)  -->
<svg version="1.1" id="Capa_1" xmlns="http://www.w3.org/2000/svg" xmlns:xlink="http://www.w3.org/1999/xlink" x="0px" y="0px"
	 viewBox="0 0 794.4 209.6" style="enable-background:new 0 0 794.4 209.6;" xml:space="preserve">
<style type="text/css">
	.st0{fill:#FFFFFF;}
</style>
<g>
	<g>
		<path class="st0" d="M68.5,128.4c4.1,0,7.9-0.4,11.2-1.1c3.3-0.7,6.5-1.7,9.5-3.1l2.9-24.7H79.3c-1.9,0-3.4-0.4-4.5-1.3
			c-1-0.9-1.6-2.1-1.6-3.6l2.3-19.5h50.4l-7.9,63.2c-3.9,2.8-7.9,5.3-12,7.3c-4.1,2-8.5,3.7-13,5c-4.5,1.3-9.3,2.3-14.3,2.9
			c-5,0.6-10.4,0.9-16,0.9c-9.3,0-17.9-1.7-25.6-5.1c-7.7-3.4-14.3-8.1-19.8-14.2c-5.5-6-9.8-13.1-12.8-21.4C1.5,105.6,0,96.7,0,87
			c0-8.4,1-16.3,2.9-23.9c1.9-7.6,4.6-14.6,8.1-21s7.8-12.2,12.7-17.4c4.9-5.2,10.4-9.6,16.5-13.3C46.3,7.7,52.8,4.9,59.8,3
			c7-2,14.3-3,22-3C88.2,0,94,0.6,99.2,1.8c5.2,1.2,9.9,2.7,14.1,4.7c4.1,2,7.8,4.3,11.1,6.8c3.3,2.6,6.1,5.3,8.6,8L122,35
			c-2.5,3-5.3,4.6-8.4,4.6c-1.9,0-3.8-0.6-5.7-1.9c-2.5-1.6-4.8-3-7-4.2c-2.1-1.2-4.3-2.2-6.5-3c-2.2-0.8-4.5-1.4-7-1.8
			c-2.5-0.4-5.2-0.6-8.2-0.6c-6.6,0-12.6,1.4-18.1,4.2C55.7,35,51,39,47.1,44c-3.9,5.1-7,11.2-9.2,18.3c-2.2,7.1-3.3,15-3.3,23.5
			c0,6.6,0.8,12.6,2.4,17.9c1.6,5.3,3.9,9.8,6.9,13.4c3,3.6,6.5,6.4,10.7,8.4C58.8,127.5,63.4,128.4,68.5,128.4z"/>
		<path class="st0" d="M176.3,154.5c-6,0-11.6-1-16.9-3c-5.2-2-9.8-4.9-13.6-8.8c-3.8-3.8-6.8-8.6-9-14.2
			c-2.2-5.6-3.3-12.1-3.3-19.5c0-9.5,1.6-18.3,4.7-26.3c3.1-8,7.4-14.9,12.7-20.7c5.3-5.8,11.5-10.3,18.5-13.6
			c7-3.2,14.4-4.9,22.1-4.9c6,0,11.6,1,16.8,3c5.2,2,9.7,4.9,13.5,8.8c3.8,3.8,6.9,8.6,9.1,14.2c2.2,5.6,3.3,12.1,3.3,19.5
			c0,9.4-1.6,18.1-4.7,26.1c-3.1,8-7.4,14.9-12.7,20.7c-5.3,5.8-11.5,10.4-18.5,13.7C191.4,152.8,184,154.5,176.3,154.5z
			 M179.2,130.6c3.6,0,6.8-1.1,9.6-3.3c2.8-2.2,5.2-5.2,7.2-8.9s3.5-8.2,4.6-13.2c1.1-5,1.6-10.4,1.6-16c0-7.8-1.1-13.4-3.2-16.8
			c-2.1-3.4-5.6-5-10.3-5c-3.6,0-6.8,1.1-9.6,3.3c-2.8,2.2-5.2,5.1-7.2,8.9s-3.5,8.1-4.6,13.2c-1.1,5-1.6,10.4-1.6,16.1
			c0,7.7,1.1,13.2,3.2,16.7C171,128.9,174.4,130.6,179.2,130.6z"/>
		<path class="st0" d="M285.2,45.2l-8.1,68.3c-0.1,1.1-0.2,2.1-0.3,3.1c-0.1,0.9-0.1,1.8-0.1,2.6c0,3.7,0.6,6.2,1.9,7.7
			c1.3,1.5,3.2,2.2,5.8,2.2c2.1,0,4.4-0.6,6.8-1.9c2.4-1.3,4.7-3.1,6.9-5.4c2.2-2.3,4.3-5.1,6.2-8.5c1.9-3.3,3.5-7,4.7-11.1l7-57
			h32.2L335,152.8h-16.4c-7.6,0-11.4-3.5-11.4-10.6v-6.8c-5.2,6.5-10.8,11.3-16.7,14.4c-5.9,3.1-12.1,4.7-18.6,4.7
			c-4,0-7.7-0.7-11-2.2c-3.4-1.5-6.3-3.6-8.7-6.4c-2.5-2.8-4.4-6.3-5.7-10.4c-1.3-4.1-2-8.8-2-14.2c0-1.2,0.1-2.5,0.2-3.8
			c0.1-1.3,0.2-2.7,0.4-4l8.1-68.3H285.2z"/>
		<path class="st0" d="M355.1,152.8l13.1-107.6h16.6c3.3,0,5.9,0.8,7.8,2.3c1.9,1.6,2.8,4.1,2.8,7.6v12.2c4.1-7.3,8.6-13,13.5-16.9
			c4.8-3.9,9.9-5.9,15-5.9c2.9,0,5.8,0.7,8.6,2l-5.8,29.8c-3.5-1.5-6.9-2.3-10.1-2.3c-5.3,0-10,2.4-14.2,7.2
			c-4.1,4.8-7.5,12.5-10,23.2l-5.8,48.3H355.1z"/>
		<path class="st0" d="M441.9,77.3H494l-3.3,25.1h-51.9L441.9,77.3z"/>
		<path class="st0" d="M567,152.8l8.1-68.4c0.1-1.1,0.2-2.1,0.3-3.1c0.1-0.9,0.1-1.8,0.1-2.6c0-3.7-0.6-6.2-1.9-7.6
			c-1.3-1.4-3.2-2.1-5.8-2.1c-2.4,0-4.8,0.7-7.4,2.2c-2.6,1.5-5,3.5-7.3,6.1c-2.3,2.6-4.4,5.8-6.4,9.6c-1.9,3.8-3.5,7.9-4.6,12.5
			l-5.9,53.4h-32.2L517,45.2h16.6c3.3,0,5.9,0.8,7.8,2.3s2.8,4.1,2.8,7.6v8.6c5.2-6.9,10.9-12,17-15.3c6.2-3.3,12.5-4.9,19.1-4.9
			c4,0,7.7,0.7,11,2.2c3.4,1.5,6.2,3.6,8.7,6.4c2.4,2.8,4.3,6.2,5.7,10.3c1.4,4.1,2.1,8.8,2.1,14.1c0,1.2-0.1,2.5-0.2,3.8
			c-0.1,1.3-0.2,2.7-0.4,4l-8.1,68.4H567z"/>
		<path class="st0" d="M713.2,71.7c0,4.9-1,9.4-2.9,13.5c-1.9,4.1-5.3,7.7-10.1,10.8c-4.8,3.1-11.3,5.8-19.4,8
			c-8.1,2.2-18.3,3.9-30.7,5.2c0.1,7.3,1.7,12.7,4.8,16.1c3.1,3.4,7.6,5.1,13.6,5.1c2.8,0,5.3-0.2,7.4-0.7c2.1-0.5,3.9-1.1,5.4-1.9
			c1.6-0.8,3-1.6,4.2-2.4s2.4-1.6,3.6-2.4c1.1-0.8,2.3-1.4,3.6-1.9c1.2-0.5,2.7-0.7,4.3-0.7c1,0,2,0.3,3,0.8c1,0.5,1.8,1.2,2.6,2
			l8.3,9.6c-3.8,3.7-7.5,7-11.2,9.7c-3.6,2.7-7.4,5-11.2,6.7c-3.8,1.8-7.9,3.1-12.2,3.9c-4.3,0.8-9,1.2-14.2,1.2
			c-6.4,0-12.2-1.1-17.5-3.3c-5.3-2.2-9.9-5.3-13.7-9.2c-3.8-4-6.8-8.8-8.9-14.4c-2.1-5.6-3.2-11.8-3.2-18.7
			c0-5.7,0.6-11.3,1.9-16.8c1.3-5.5,3.1-10.6,5.5-15.4c2.4-4.8,5.3-9.2,8.8-13.3c3.5-4,7.3-7.5,11.7-10.4c4.3-2.9,9.1-5.2,14.2-6.8
			c5.2-1.6,10.6-2.4,16.4-2.4c5.7,0,10.8,0.8,15.3,2.5c4.5,1.7,8.2,3.8,11.3,6.5c3,2.7,5.4,5.7,7,9C712.4,65,713.2,68.4,713.2,71.7z
			 M675.5,65.5c-5.3,0-10,2.1-14,6.4c-4,4.3-7,10.1-9,17.5c6.7-1,12.1-2.1,16.3-3.3c4.1-1.1,7.4-2.4,9.6-3.7
			c2.3-1.3,3.8-2.8,4.6-4.4c0.8-1.6,1.2-3.2,1.2-5c0-1.8-0.7-3.5-2.1-5.1C680.7,66.3,678.5,65.5,675.5,65.5z"/>
		<path class="st0" d="M729,129.6c0-0.5,0-1.1,0-1.8c0-0.7,0.1-1.7,0.2-3c0.1-1.3,0.3-3,0.5-5.1c0.2-2.1,0.6-4.9,1-8.4l5.5-44h-8.6
			c-1.3,0-2.4-0.4-3.3-1.3c-0.9-0.9-1.3-2.2-1.3-3.9c0-0.1,0.1-0.7,0.2-1.8c0.1-1.1,0.3-2.4,0.4-3.6c0.1-1.3,0.3-2.5,0.4-3.6
			c0.1-1.1,0.2-1.7,0.2-1.9l0.3-2.8l16.3-3.3l9-26.2c1-3.3,3.4-5,7.1-5h17.4l-3.9,31.4h24.1l-2.7,22h-24.1l-5.2,42.2
			c-0.3,2.8-0.6,5.1-0.8,6.7c-0.2,1.6-0.3,2.9-0.4,3.7c-0.1,0.9-0.2,1.5-0.2,1.8c0,0.3-0.1,0.5-0.1,0.6c0,2,0.5,3.7,1.4,5
			s2.4,2,4.4,2c1.1,0,2-0.1,2.7-0.4c0.7-0.2,1.4-0.5,1.9-0.8c0.6-0.3,1.1-0.6,1.6-0.8c0.5-0.2,1-0.4,1.7-0.4c1,0,1.7,0.2,2.2,0.7
			c0.5,0.5,0.9,1.2,1.3,2.1l7.1,15.3c-4.3,3.1-8.9,5.4-13.8,7c-4.9,1.6-9.9,2.3-14.8,2.3c-4.2,0-7.9-0.6-11.2-1.7
			c-3.3-1.1-6.2-2.8-8.6-5c-2.4-2.2-4.3-4.8-5.6-7.8C729.9,136.9,729.1,133.5,729,129.6z"/>
	</g>
	<g>
		<g>
			<path class="st0" d="M78.5,203.9h-2.3l4-32.4h2.3L78.5,203.9z"/>
			<path class="st0" d="M94.5,203.9l2.8-22.9h1c0.5,0,0.8,0.3,0.8,0.8l-0.7,6.6c0.6-1.2,1.3-2.3,2.1-3.2s1.6-1.8,2.4-2.4
				c0.8-0.7,1.7-1.2,2.6-1.5c0.9-0.3,1.8-0.5,2.7-0.5c1.7,0,3,0.6,3.8,1.7c0.9,1.1,1.3,2.7,1.3,4.8c0,0.1,0,0.3,0,0.5
				c0,0.2,0,0.5-0.1,0.8s-0.1,0.9-0.2,1.6c-0.1,0.7-0.2,1.6-0.3,2.8c-0.1,1.2-0.3,2.7-0.5,4.4c-0.2,1.8-0.5,3.9-0.8,6.5h-2.2
				l1.7-14.6c0.1-0.7,0.1-1.4,0.1-2c0-1.5-0.3-2.7-0.9-3.5c-0.6-0.8-1.5-1.2-2.8-1.2c-0.9,0-1.7,0.2-2.6,0.7
				c-0.9,0.4-1.7,1.1-2.5,1.9c-0.8,0.8-1.6,1.8-2.3,2.9c-0.7,1.1-1.4,2.4-1.9,3.8l-1.4,12.1H94.5z"/>
			<path class="st0" d="M130.1,183.4l-2.4,20l-1,5.3c-0.1,0.3-0.2,0.6-0.4,0.7c-0.2,0.1-0.4,0.2-0.7,0.2h-0.8l3.2-26.2l-2.9-0.2
				c-0.3,0-0.5-0.2-0.5-0.5c0,0,0-0.1,0-0.1c0-0.1,0-0.3,0.1-0.8h3.5l0.4-2.9c0.2-1.3,0.5-2.4,0.9-3.4c0.4-1,1-1.8,1.7-2.5
				c0.7-0.7,1.4-1.2,2.3-1.5c0.8-0.3,1.7-0.5,2.7-0.5c0.4,0,0.9,0,1.3,0.1s0.8,0.2,1.1,0.4l-0.2,1.1c0,0.2-0.1,0.3-0.3,0.3
				c-0.2,0-0.4,0-0.7-0.1c-0.3-0.1-0.7-0.1-1.1-0.1c-0.7,0-1.3,0.1-2,0.3c-0.6,0.2-1.2,0.6-1.7,1.1c-0.5,0.5-0.9,1.1-1.2,1.9
				s-0.6,1.8-0.7,2.9l-0.4,2.8h6.5l-0.2,1.6H130.1z"/>
			<path class="st0" d="M153.1,204.2c-1.2,0-2.3-0.2-3.3-0.6c-1-0.4-1.9-1-2.6-1.9c-0.7-0.8-1.3-1.8-1.7-2.9
				c-0.4-1.2-0.6-2.5-0.6-3.9c0-1.8,0.3-3.6,0.8-5.3c0.6-1.7,1.3-3.2,2.3-4.5c1-1.3,2.2-2.3,3.6-3.1c1.4-0.8,2.9-1.2,4.5-1.2
				c1.2,0,2.3,0.2,3.3,0.7c1,0.4,1.9,1.1,2.6,1.9c0.7,0.8,1.3,1.8,1.7,2.9s0.6,2.5,0.6,3.9c0,1.8-0.3,3.6-0.8,5.3
				c-0.6,1.7-1.3,3.2-2.3,4.5c-1,1.3-2.2,2.3-3.6,3.1C156.2,203.8,154.7,204.2,153.1,204.2z M153.3,202.4c1.3,0,2.5-0.3,3.6-1
				c1.1-0.7,2-1.6,2.8-2.8c0.8-1.2,1.4-2.5,1.8-4c0.4-1.5,0.6-3,0.6-4.6c0-2.4-0.5-4.3-1.6-5.7c-1.1-1.3-2.6-2-4.5-2
				c-0.9,0-1.7,0.2-2.5,0.5s-1.5,0.8-2.2,1.3c-0.7,0.6-1.2,1.2-1.8,2c-0.5,0.8-1,1.6-1.3,2.5s-0.6,1.9-0.8,2.9
				c-0.2,1-0.3,2.1-0.3,3.1c0,2.4,0.5,4.3,1.6,5.7C149.8,201.8,151.3,202.4,153.3,202.4z"/>
			<path class="st0" d="M175.4,203.9l2.8-22.9h1c0.5,0,0.8,0.3,0.8,0.8l-0.7,6.8c1-2.5,2.2-4.4,3.6-5.8c1.3-1.4,2.8-2,4.3-2
				c0.6,0,1.3,0.1,1.9,0.4l-0.4,2c-0.7-0.3-1.4-0.4-2-0.4c-1.6,0-3.1,0.8-4.4,2.4s-2.4,3.9-3.4,7l-1.4,11.6H175.4z"/>
			<path class="st0" d="M198,203.9l2.8-22.9h1c0.5,0,0.8,0.3,0.8,0.8l-0.6,6.4c1.2-2.4,2.6-4.2,4.1-5.5c1.6-1.3,3.2-2,4.9-2
				c1.5,0,2.6,0.5,3.3,1.4c0.6,1,1,2.3,1,4.1c0,0.5,0,1.1-0.1,1.7c0.6-1.2,1.2-2.3,2-3.2s1.5-1.7,2.2-2.3s1.6-1.1,2.4-1.4
				s1.6-0.4,2.5-0.4c1.6,0,2.8,0.5,3.5,1.5s1.1,2.5,1.1,4.4c0,0.2,0,0.3,0,0.5s0,0.5-0.1,0.9s-0.1,1-0.2,1.7s-0.2,1.7-0.3,2.9
				s-0.3,2.7-0.5,4.5c-0.2,1.8-0.5,4-0.8,6.6h-2.1l1.7-14.6c0.1-0.5,0.1-0.9,0.1-1.3c0-0.4,0-0.8,0-1.2c0-1.4-0.2-2.4-0.7-3.1
				c-0.5-0.7-1.3-1.1-2.5-1.1c-0.7,0-1.5,0.2-2.3,0.5c-0.8,0.3-1.5,0.9-2.3,1.5c-0.7,0.7-1.4,1.6-2.1,2.6c-0.7,1-1.3,2.3-1.8,3.7
				l-1.5,13h-2.1l1.7-14.6c0.1-1.1,0.2-2,0.2-2.8c0-1.3-0.2-2.3-0.7-2.9c-0.4-0.7-1.2-1-2.4-1c-1.7,0-3.4,0.8-4.8,2.4
				c-1.5,1.6-2.8,3.8-3.9,6.7l-1.4,12.2H198z"/>
			<path class="st0" d="M257.9,185.4c0,0.6-0.1,1.2-0.3,1.8c-0.2,0.6-0.5,1.1-0.9,1.6c-0.4,0.5-1,1-1.7,1.4
				c-0.7,0.5-1.7,0.9-2.8,1.2c-1.1,0.4-2.5,0.7-4.1,1c-1.6,0.3-3.5,0.6-5.6,0.8c0,0.3-0.1,0.6-0.1,1c0,0.3,0,0.6,0,0.9
				c0,2.3,0.5,4.1,1.5,5.3c1,1.3,2.6,1.9,4.7,1.9c0.8,0,1.5-0.1,2.2-0.3c0.6-0.2,1.2-0.4,1.7-0.7c0.5-0.3,1-0.6,1.4-0.9
				s0.7-0.6,1-0.9c0.3-0.3,0.6-0.5,0.8-0.7c0.2-0.2,0.4-0.3,0.6-0.3c0.2,0,0.3,0.1,0.5,0.2l0.5,0.6c-0.7,0.8-1.5,1.5-2.2,2.1
				s-1.4,1-2.2,1.4c-0.7,0.4-1.5,0.6-2.3,0.8c-0.8,0.2-1.6,0.3-2.5,0.3c-1.3,0-2.4-0.2-3.4-0.6c-1-0.4-1.8-1-2.5-1.8
				c-0.7-0.8-1.2-1.7-1.5-2.8c-0.4-1.1-0.5-2.3-0.5-3.7c0-1.1,0.1-2.3,0.3-3.5c0.2-1.2,0.6-2.3,1-3.3c0.5-1.1,1-2.1,1.7-3
				c0.7-0.9,1.4-1.7,2.3-2.4s1.8-1.2,2.8-1.6c1-0.4,2.2-0.6,3.4-0.6c1.1,0,2.1,0.2,2.8,0.5c0.8,0.3,1.4,0.7,1.9,1.2
				c0.5,0.5,0.8,1,1,1.5C257.7,184.4,257.9,184.9,257.9,185.4z M251.7,182.3c-1.2,0-2.3,0.3-3.3,0.8c-1,0.5-1.9,1.2-2.6,2.1
				c-0.8,0.9-1.4,1.9-1.9,3c-0.5,1.1-0.9,2.3-1.1,3.6c1.9-0.2,3.6-0.5,5-0.7c1.4-0.3,2.6-0.6,3.6-0.9c1-0.3,1.8-0.7,2.4-1
				c0.6-0.4,1.1-0.7,1.4-1.1c0.3-0.4,0.6-0.8,0.7-1.2c0.1-0.4,0.2-0.8,0.2-1.3c0-0.3-0.1-0.7-0.2-1c-0.1-0.4-0.4-0.7-0.7-1
				c-0.3-0.3-0.8-0.6-1.3-0.8S252.5,182.3,251.7,182.3z"/>
			<path class="st0" d="M282.7,183.8c-0.1,0.2-0.3,0.3-0.5,0.3c-0.2,0-0.3-0.1-0.6-0.3c-0.2-0.2-0.5-0.4-0.9-0.6
				c-0.4-0.2-0.9-0.5-1.4-0.6c-0.6-0.2-1.3-0.3-2.1-0.3c-0.8,0-1.5,0.1-2.2,0.4c-0.7,0.3-1.3,0.6-1.8,1c-0.5,0.4-0.9,0.9-1.2,1.5
				s-0.4,1.2-0.4,1.8c0,0.6,0.1,1.2,0.4,1.6s0.7,0.8,1.2,1.1c0.5,0.3,1,0.6,1.6,0.8c0.6,0.2,1.2,0.5,1.9,0.7
				c0.6,0.2,1.3,0.5,1.9,0.8c0.6,0.3,1.1,0.6,1.6,1s0.9,0.9,1.2,1.5c0.3,0.6,0.4,1.3,0.4,2.1c0,1-0.2,1.9-0.6,2.8
				c-0.4,0.9-0.9,1.7-1.7,2.4c-0.7,0.7-1.6,1.3-2.6,1.7c-1,0.4-2.2,0.6-3.4,0.6c-1.5,0-2.7-0.3-3.7-0.8c-1-0.5-1.8-1.2-2.6-2
				l0.5-0.8c0.1-0.1,0.2-0.2,0.3-0.3c0.1-0.1,0.2-0.1,0.3-0.1c0.2,0,0.3,0.1,0.6,0.4c0.2,0.2,0.5,0.5,1,0.8c0.4,0.3,0.9,0.6,1.5,0.8
				c0.6,0.2,1.4,0.4,2.4,0.4c0.9,0,1.7-0.1,2.5-0.4c0.7-0.3,1.4-0.7,1.9-1.2s0.9-1.1,1.2-1.8c0.3-0.7,0.4-1.4,0.4-2.2
				c0-0.7-0.1-1.2-0.4-1.7c-0.3-0.5-0.7-0.9-1.1-1.2s-1-0.6-1.6-0.8c-0.6-0.2-1.2-0.5-1.9-0.7c-0.6-0.2-1.3-0.5-1.9-0.7
				c-0.6-0.3-1.2-0.6-1.6-1s-0.9-0.8-1.1-1.4c-0.3-0.6-0.4-1.2-0.4-2c0-0.9,0.2-1.7,0.6-2.6s0.9-1.5,1.6-2.2
				c0.7-0.6,1.5-1.1,2.5-1.5c0.9-0.4,2-0.6,3.1-0.6c1.3,0,2.4,0.2,3.3,0.6s1.8,1,2.5,1.8L282.7,183.8z"/>
			<path class="st0" d="M308.8,202.1c0-0.3,0.1-0.6,0.2-0.8c0.1-0.3,0.3-0.5,0.4-0.7c0.2-0.2,0.4-0.3,0.7-0.5
				c0.3-0.1,0.5-0.2,0.8-0.2c0.3,0,0.6,0.1,0.8,0.2c0.3,0.1,0.5,0.3,0.7,0.5c0.2,0.2,0.3,0.4,0.5,0.7c0.1,0.3,0.2,0.5,0.2,0.8
				c0,0.6-0.2,1.1-0.6,1.5c-0.4,0.4-0.9,0.6-1.5,0.6c-0.6,0-1.1-0.2-1.5-0.6C309,203.2,308.8,202.7,308.8,202.1z"/>
			<path class="st0" d="M342,203.9l2.8-22.9h1c0.5,0,0.8,0.3,0.8,0.8l-0.6,6.4c1.2-2.4,2.6-4.2,4.1-5.5c1.6-1.3,3.2-2,4.9-2
				c1.5,0,2.6,0.5,3.3,1.4c0.6,1,1,2.3,1,4.1c0,0.5,0,1.1-0.1,1.7c0.6-1.2,1.2-2.3,2-3.2s1.5-1.7,2.2-2.3s1.6-1.1,2.4-1.4
				s1.6-0.4,2.5-0.4c1.6,0,2.8,0.5,3.5,1.5s1.1,2.5,1.1,4.4c0,0.2,0,0.3,0,0.5s0,0.5-0.1,0.9s-0.1,1-0.2,1.7s-0.2,1.7-0.3,2.9
				s-0.3,2.7-0.5,4.5c-0.2,1.8-0.5,4-0.8,6.6h-2.1l1.7-14.6c0.1-0.5,0.1-0.9,0.1-1.3c0-0.4,0-0.8,0-1.2c0-1.4-0.2-2.4-0.7-3.1
				c-0.5-0.7-1.3-1.1-2.5-1.1c-0.7,0-1.5,0.2-2.3,0.5c-0.8,0.3-1.5,0.9-2.3,1.5c-0.7,0.7-1.4,1.6-2.1,2.6c-0.7,1-1.3,2.3-1.8,3.7
				l-1.5,13h-2.1l1.7-14.6c0.1-1.1,0.2-2,0.2-2.8c0-1.3-0.2-2.3-0.7-2.9c-0.4-0.7-1.2-1-2.4-1c-1.7,0-3.4,0.8-4.8,2.4
				c-1.5,1.6-2.8,3.8-3.9,6.7l-1.4,12.2H342z"/>
			<path class="st0" d="M392.4,204.2c-1.2,0-2.3-0.2-3.3-0.6c-1-0.4-1.9-1-2.6-1.9c-0.7-0.8-1.3-1.8-1.7-2.9
				c-0.4-1.2-0.6-2.5-0.6-3.9c0-1.8,0.3-3.6,0.8-5.3c0.6-1.7,1.3-3.2,2.3-4.5c1-1.3,2.2-2.3,3.6-3.1c1.4-0.8,2.9-1.2,4.5-1.2
				c1.2,0,2.3,0.2,3.3,0.7c1,0.4,1.9,1.1,2.6,1.9c0.7,0.8,1.3,1.8,1.7,2.9s0.6,2.5,0.6,3.9c0,1.8-0.3,3.6-0.8,5.3
				c-0.6,1.7-1.3,3.2-2.3,4.5c-1,1.3-2.2,2.3-3.6,3.1C395.6,203.8,394,204.2,392.4,204.2z M392.6,202.4c1.3,0,2.5-0.3,3.6-1
				c1.1-0.7,2-1.6,2.8-2.8c0.8-1.2,1.4-2.5,1.8-4c0.4-1.5,0.6-3,0.6-4.6c0-2.4-0.5-4.3-1.6-5.7c-1.1-1.3-2.6-2-4.5-2
				c-0.9,0-1.7,0.2-2.5,0.5s-1.5,0.8-2.2,1.3c-0.7,0.6-1.2,1.2-1.8,2c-0.5,0.8-1,1.6-1.3,2.5s-0.6,1.9-0.8,2.9
				c-0.2,1-0.3,2.1-0.3,3.1c0,2.4,0.5,4.3,1.6,5.7C389.1,201.8,390.6,202.4,392.6,202.4z"/>
			<path class="st0" d="M414.9,203.9l4-33.4h2.1l-2.2,18.2c0.6-1.2,1.3-2.3,2-3.3c0.7-1,1.5-1.8,2.3-2.5c0.8-0.7,1.7-1.2,2.6-1.6
				c0.9-0.4,1.8-0.6,2.7-0.6c1,0,1.9,0.2,2.6,0.6c0.7,0.4,1.4,0.9,1.9,1.6c0.5,0.7,0.9,1.5,1.1,2.5s0.4,2.1,0.4,3.3
				c0,1.2-0.1,2.4-0.4,3.6c-0.2,1.2-0.6,2.4-1,3.5c-0.5,1.1-1,2.2-1.7,3.2c-0.7,1-1.4,1.9-2.2,2.6c-0.8,0.7-1.7,1.3-2.7,1.8
				s-2,0.7-3.1,0.7c-1.3,0-2.5-0.3-3.6-0.9c-1.1-0.6-1.9-1.5-2.6-2.6l-0.4,2.5c0,0.3-0.1,0.4-0.2,0.6c-0.1,0.1-0.3,0.2-0.6,0.2
				H414.9z M427.7,182.5c-0.9,0-1.7,0.2-2.6,0.7s-1.7,1.2-2.5,2.1c-0.8,0.9-1.6,2-2.3,3.2c-0.7,1.3-1.3,2.6-1.9,4.2l-0.8,6.5
				c0.3,0.6,0.7,1.1,1.1,1.5c0.4,0.4,0.9,0.8,1.4,1c0.5,0.3,1,0.4,1.5,0.6c0.5,0.1,1,0.2,1.6,0.2c1,0,1.9-0.2,2.7-0.6
				c0.8-0.4,1.6-0.9,2.3-1.6c0.7-0.7,1.3-1.5,1.8-2.3c0.5-0.9,1-1.8,1.3-2.8c0.4-1,0.6-2,0.8-3.1c0.2-1,0.3-2.1,0.3-3.1
				c0-2-0.4-3.6-1.2-4.8S429.2,182.5,427.7,182.5z"/>
			<path class="st0" d="M450.8,181l-2.8,22.8h-2.1l2.8-22.8H450.8z M452.5,173.2c0,0.3-0.1,0.5-0.2,0.8c-0.1,0.2-0.3,0.4-0.4,0.6
				c-0.2,0.2-0.4,0.3-0.6,0.4c-0.2,0.1-0.5,0.2-0.7,0.2c-0.3,0-0.5-0.1-0.7-0.2c-0.2-0.1-0.4-0.3-0.6-0.4s-0.3-0.4-0.4-0.6
				c-0.1-0.2-0.2-0.5-0.2-0.8s0.1-0.5,0.2-0.8c0.1-0.2,0.2-0.5,0.4-0.7s0.4-0.3,0.6-0.4c0.2-0.1,0.5-0.2,0.7-0.2
				c0.2,0,0.5,0.1,0.7,0.2c0.2,0.1,0.4,0.3,0.6,0.4c0.2,0.2,0.3,0.4,0.4,0.7C452.4,172.6,452.5,172.9,452.5,173.2z"/>
			<path class="st0" d="M463.5,203.9l4-33.4h2.1l-4.1,33.4H463.5z"/>
			<path class="st0" d="M497.5,185.4c0,0.6-0.1,1.2-0.3,1.8c-0.2,0.6-0.5,1.1-0.9,1.6c-0.4,0.5-1,1-1.7,1.4
				c-0.7,0.5-1.7,0.9-2.8,1.2c-1.1,0.4-2.5,0.7-4.1,1c-1.6,0.3-3.5,0.6-5.6,0.8c0,0.3-0.1,0.6-0.1,1c0,0.3,0,0.6,0,0.9
				c0,2.3,0.5,4.1,1.5,5.3c1,1.3,2.6,1.9,4.7,1.9c0.8,0,1.5-0.1,2.2-0.3s1.2-0.4,1.7-0.7c0.5-0.3,1-0.6,1.4-0.9s0.7-0.6,1-0.9
				c0.3-0.3,0.6-0.5,0.8-0.7c0.2-0.2,0.4-0.3,0.6-0.3s0.3,0.1,0.5,0.2l0.5,0.6c-0.7,0.8-1.5,1.5-2.2,2.1c-0.7,0.6-1.4,1-2.2,1.4
				c-0.7,0.4-1.5,0.6-2.3,0.8s-1.6,0.3-2.5,0.3c-1.3,0-2.4-0.2-3.4-0.6c-1-0.4-1.8-1-2.5-1.8c-0.7-0.8-1.2-1.7-1.5-2.8
				c-0.4-1.1-0.5-2.3-0.5-3.7c0-1.1,0.1-2.3,0.3-3.5c0.2-1.2,0.6-2.3,1-3.3c0.5-1.1,1-2.1,1.7-3c0.7-0.9,1.4-1.7,2.3-2.4
				s1.8-1.2,2.8-1.6c1-0.4,2.2-0.6,3.4-0.6c1.1,0,2.1,0.2,2.8,0.5c0.8,0.3,1.4,0.7,1.9,1.2c0.5,0.5,0.8,1,1,1.5
				C497.4,184.4,497.5,184.9,497.5,185.4z M491.3,182.3c-1.2,0-2.3,0.3-3.3,0.8c-1,0.5-1.9,1.2-2.6,2.1c-0.8,0.9-1.4,1.9-1.9,3
				c-0.5,1.1-0.9,2.3-1.1,3.6c1.9-0.2,3.6-0.5,5-0.7c1.4-0.3,2.6-0.6,3.6-0.9c1-0.3,1.8-0.7,2.4-1c0.6-0.4,1.1-0.7,1.4-1.1
				c0.3-0.4,0.6-0.8,0.7-1.2c0.1-0.4,0.2-0.8,0.2-1.3c0-0.3-0.1-0.7-0.2-1c-0.1-0.4-0.4-0.7-0.7-1c-0.3-0.3-0.8-0.6-1.3-0.8
				C492.8,182.4,492.1,182.3,491.3,182.3z"/>
			<path class="st0" d="M523.5,202.1c0-0.3,0.1-0.6,0.2-0.8c0.1-0.3,0.3-0.5,0.4-0.7c0.2-0.2,0.4-0.3,0.7-0.5
				c0.3-0.1,0.5-0.2,0.8-0.2c0.3,0,0.6,0.1,0.8,0.2c0.3,0.1,0.5,0.3,0.7,0.5s0.3,0.4,0.5,0.7c0.1,0.3,0.2,0.5,0.2,0.8
				c0,0.6-0.2,1.1-0.6,1.5c-0.4,0.4-0.9,0.6-1.5,0.6s-1.1-0.2-1.5-0.6C523.7,203.2,523.5,202.7,523.5,202.1z"/>
			<path class="st0" d="M572.1,203.9h-1.1c-0.3,0-0.5-0.1-0.6-0.2s-0.2-0.3-0.2-0.5l0.8-7.2c-0.6,1.2-1.2,2.3-1.9,3.3
				c-0.7,1-1.4,1.9-2.2,2.6c-0.8,0.7-1.6,1.3-2.5,1.7s-1.8,0.6-2.7,0.6c-1,0-1.8-0.2-2.5-0.6c-0.7-0.4-1.3-0.9-1.8-1.6
				c-0.5-0.7-0.8-1.5-1.1-2.5c-0.2-1-0.4-2.1-0.4-3.3c0-1.3,0.2-2.6,0.5-3.9c0.3-1.3,0.8-2.5,1.4-3.6s1.4-2.2,2.2-3.2
				c0.9-1,1.8-1.8,2.8-2.5c1-0.7,2.1-1.3,3.3-1.7s2.4-0.6,3.6-0.6c0.9,0,1.8,0.1,2.6,0.2c0.8,0.2,1.6,0.4,2.4,0.8L572.1,203.9z
				 M562.4,202.3c0.9,0,1.7-0.2,2.6-0.7c0.8-0.5,1.7-1.2,2.4-2.1c0.8-0.9,1.5-2,2.2-3.2s1.3-2.7,1.8-4.2l1.1-9.3
				c-0.9-0.3-1.9-0.5-2.9-0.5c-1,0-2,0.2-3,0.5s-1.9,0.8-2.7,1.4c-0.8,0.6-1.6,1.3-2.3,2.2c-0.7,0.8-1.3,1.8-1.8,2.8
				s-0.9,2.1-1.2,3.2c-0.3,1.1-0.4,2.3-0.4,3.4c0,2,0.3,3.6,1,4.8C559.8,201.8,560.9,202.3,562.4,202.3z"/>
			<path class="st0" d="M586.6,203.9l4-33.4h2.2l-2.1,17.4c0.6-1.1,1.3-2.2,2-3.1c0.7-0.9,1.5-1.7,2.3-2.3s1.7-1.1,2.5-1.4
				c0.9-0.3,1.7-0.5,2.6-0.5c1.7,0,3,0.6,3.8,1.7c0.8,1.1,1.3,2.7,1.3,4.7c0,0.1,0,0.3,0,0.4s0,0.4-0.1,0.8c0,0.4-0.1,0.9-0.2,1.6
				c-0.1,0.7-0.2,1.7-0.3,2.9s-0.3,2.7-0.5,4.5s-0.5,4-0.8,6.5h-2.2l1.7-14.6c0.1-0.7,0.1-1.4,0.1-2c0-1.6-0.3-2.7-0.9-3.6
				c-0.6-0.8-1.5-1.2-2.8-1.2c-0.8,0-1.7,0.2-2.5,0.6c-0.9,0.4-1.7,1-2.5,1.8c-0.8,0.8-1.6,1.7-2.3,2.9c-0.7,1.1-1.4,2.4-1.9,3.7
				l-1.5,12.3H586.6z"/>
			<path class="st0" d="M624.9,204.2c-1.2,0-2.3-0.2-3.3-0.6s-1.9-1-2.6-1.9c-0.7-0.8-1.3-1.8-1.7-2.9c-0.4-1.2-0.6-2.5-0.6-3.9
				c0-1.8,0.3-3.6,0.8-5.3c0.5-1.7,1.3-3.2,2.3-4.5s2.2-2.3,3.6-3.1c1.4-0.8,2.9-1.2,4.5-1.2c1.2,0,2.3,0.2,3.3,0.7s1.9,1.1,2.6,1.9
				c0.7,0.8,1.3,1.8,1.7,2.9s0.6,2.5,0.6,3.9c0,1.8-0.3,3.6-0.8,5.3c-0.6,1.7-1.3,3.2-2.3,4.5s-2.2,2.3-3.6,3.1
				C628,203.8,626.5,204.2,624.9,204.2z M625.1,202.4c1.3,0,2.5-0.3,3.6-1s2-1.6,2.8-2.8c0.8-1.2,1.4-2.5,1.8-4
				c0.4-1.5,0.6-3,0.6-4.6c0-2.4-0.5-4.3-1.6-5.7c-1.1-1.3-2.6-2-4.5-2c-0.9,0-1.7,0.2-2.5,0.5c-0.8,0.3-1.5,0.8-2.2,1.3
				c-0.7,0.6-1.2,1.2-1.8,2c-0.5,0.8-1,1.6-1.3,2.5s-0.6,1.9-0.8,2.9c-0.2,1-0.3,2.1-0.3,3.1c0,2.4,0.5,4.3,1.6,5.7
				C621.6,201.8,623.1,202.4,625.1,202.4z"/>
			<path class="st0" d="M647.2,203.9l2.8-22.9h1c0.5,0,0.8,0.3,0.8,0.8l-0.7,6.8c1-2.5,2.2-4.4,3.6-5.8c1.3-1.4,2.8-2,4.3-2
				c0.6,0,1.3,0.1,1.9,0.4l-0.4,2c-0.7-0.3-1.4-0.4-2-0.4c-1.6,0-3.1,0.8-4.4,2.4s-2.4,3.9-3.4,7l-1.4,11.6H647.2z"/>
			<path class="st0" d="M684.3,203.9h-1.1c-0.3,0-0.5-0.1-0.6-0.2s-0.2-0.3-0.2-0.5l0.8-7.2c-0.6,1.2-1.2,2.3-1.9,3.3
				c-0.7,1-1.4,1.9-2.2,2.6c-0.8,0.7-1.6,1.3-2.5,1.7s-1.8,0.6-2.7,0.6c-1,0-1.8-0.2-2.5-0.6c-0.7-0.4-1.3-0.9-1.8-1.6
				c-0.5-0.7-0.8-1.5-1.1-2.5c-0.2-1-0.4-2.1-0.4-3.3c0-1.3,0.2-2.6,0.5-3.9c0.3-1.3,0.8-2.5,1.4-3.6s1.4-2.2,2.2-3.2
				c0.9-1,1.8-1.8,2.8-2.5c1-0.7,2.1-1.3,3.3-1.7s2.4-0.6,3.6-0.6c0.9,0,1.8,0.1,2.6,0.2c0.8,0.2,1.6,0.4,2.4,0.8L684.3,203.9z
				 M674.6,202.3c0.9,0,1.7-0.2,2.6-0.7c0.8-0.5,1.7-1.2,2.4-2.1c0.8-0.9,1.5-2,2.2-3.2s1.3-2.7,1.8-4.2l1.1-9.3
				c-0.9-0.3-1.9-0.5-2.9-0.5c-1,0-2,0.2-3,0.5s-1.9,0.8-2.7,1.4c-0.8,0.6-1.6,1.3-2.3,2.2c-0.7,0.8-1.3,1.8-1.8,2.8
				s-0.9,2.1-1.2,3.2c-0.3,1.1-0.4,2.3-0.4,3.4c0,2,0.3,3.6,1,4.8C672,201.8,673.1,202.3,674.6,202.3z"/>
		</g>
	</g>
</g>
</svg>
